
<svg width="150px" height="83px" viewBox="0 0 150 83" version="1.1" xmlns="http://www.w3.org/2000/svg" xmlns:xlink="http://www.w3.org/1999/xlink">
    <!-- Generator: Sketch 46.2 (44496) - http://www.bohemiancoding.com/sketch -->
    <desc>Created with Sketch.</desc>
    <defs></defs>
    <g id="Page-1" stroke="none" stroke-width="1" fill="none" fill-rule="evenodd">
        <g id="ffx_logo_02" fill="#FFFFFF">
            <path d="M9.64245527,73.2749339 C9.63274646,73.2287745 9.62425126,73.1839795 9.6167421,73.1409278 C9.43674993,72.1027594 9.51161393,71.003121 9.71868457,69.9754123 C9.99872296,68.5852505 10.5012296,67.2456442 10.9404014,65.9006563 C12.4453422,61.2915434 17.0611213,52.0873396 17.0268371,52.0692246 C16.2517254,51.658414 14.5018647,51.4024532 13.8955952,51.0810811 C13.8955952,51.0810811 8.49901574,65.0006628 8.12750218,66.1661673 C7.60019262,67.820021 7.26561805,69.5373912 7.29967472,71.2972826 C7.30801823,71.7296948 7.36422311,72.1666548 7.49187875,72.5773896 C7.62871224,73.0174572 7.84784304,73.427434 8.18173497,73.7682856 C8.37659375,73.9672483 8.60421976,74.1337706 8.85202188,74.2608035 C9.13039157,74.4036019 9.43409518,74.4917518 9.74325999,74.5363195 C9.92203856,74.5620899 10.1013481,74.5818724 10.2818712,74.5897552 C10.4364536,74.5964251 10.5913394,74.5962735 10.7457701,74.5888456 C10.0226916,74.2686104 9.76320855,73.8490076 9.64245527,73.2749339" id="Fill-1"></path>
            <path d="M57.7065658,55.3330862 C57.2999623,56.6327696 57.815719,57.9608051 58.8584276,58.2992882 C59.9011361,58.6377713 61.076088,57.8585632 61.4826138,56.5588007 C61.8892172,55.2591173 61.3735383,53.9310818 60.330752,53.5925987 C59.2880434,53.2541156 58.1131693,54.0334029 57.7065658,55.3330862" id="Fill-3"></path>
            <path d="M57.0555735,72.86325 C57.0400705,72.8623389 57.0244931,72.8612001 57.0089901,72.8597576 C56.6136652,72.8248337 56.2175205,72.6240974 56.018591,72.2744032 C55.790668,71.8736898 55.8616237,71.3980419 55.9211013,70.9627083 C55.9861689,70.4860734 56.0810499,70.0165751 56.2025393,69.5511766 C56.4541639,68.5874297 56.7997005,67.6529885 57.1338335,66.7167252 C57.6541508,65.2584259 58.206443,63.8118945 58.7711076,62.3708295 C58.8054675,62.2829883 59.489311,60.5333026 59.4652368,60.5197885 C58.7034314,60.108598 57.4916681,59.5108684 56.895774,59.1891892 C56.557318,60.1323614 56.1564031,61.3404235 55.822121,62.2851141 C54.9878692,64.6425511 54.0348858,67.0661157 53.6484303,69.5500378 C53.4336998,70.930138 53.3497007,72.6294878 54.3879503,73.7092427 C54.7777597,74.1140559 55.3769333,74.4295095 55.9241572,74.5302573 C57.7162371,74.860136 59.3140831,73.8704239 60.1777756,72.7267432 C60.7960298,71.9080062 61.0967718,71.1933576 61.5380838,70.2633198 C61.6015862,70.1294703 61.5643941,69.878474 61.5951764,69.7331604 C61.6253624,69.5903521 61.6228282,69.4428367 61.6200705,69.2968398 C61.6150022,69.0238262 61.6100085,68.7508127 61.6049402,68.4777992 C61.6012881,68.2799479 61.028872,68.0929533 60.9550839,67.9099067 C60.6743913,68.7237087 60.5448524,69.5485194 60.2641598,70.1973441 C59.8128603,71.2405048 59.1980347,72.1886879 58.1653751,72.6279694 C57.8136522,72.7775346 57.4352464,72.8859505 57.0555735,72.86325" id="Fill-5"></path>
            <path d="M98.9215931,53.6515529 C99.9923633,52.4347781 101.122834,52.5865512 101.340858,52.8726494 C101.474488,51.5160637 100.310139,50.1859925 99.0863154,50.2744506 C98.3993452,50.3241273 96.3873692,49.8937228 93.1571409,58.3879838 C92.8957535,59.0753054 90.9819484,64.4406953 90.2973872,66.4402593 C88.9598091,70.3470433 87.7593991,74.4630487 85.9513687,78.1852213 C85.1577957,79.8188385 84.1050184,81.2750063 82.7358208,82.5141812 C82.480682,82.7451932 83.7805426,82.7029832 83.8729166,82.6936879 C84.7861165,82.6020298 85.6984883,82.3563891 86.4184332,81.766821 C88.568556,80.0061929 90.4391478,74.9355108 91.2340759,72.6170101 C92.1709151,69.8847908 93.1579691,67.1089139 94.1499165,64.3729613 C95.0390254,61.9203639 95.8680574,59.4442997 96.9595308,57.0734557 C97.4772617,55.9488724 98.1012942,54.5837532 98.9215931,53.6515529" id="Fill-7"></path>
            <path d="M83.0769119,73.260416 C82.8304837,72.0960487 83.103038,70.8514912 83.4775367,69.7469216 C84.3401486,67.2019189 85.2921312,64.6894983 86.21987,62.1687213 C86.3899529,61.7065163 86.5599606,61.2443112 86.7295165,60.7819529 C86.730947,60.7781197 86.7582024,60.7085091 86.7566966,60.7077425 C85.98722,60.2924556 84.6320528,59.5830103 84.0300992,59.2581098 C84.0300992,59.2581098 84.0265605,59.2689194 84.020236,59.2880086 C84.017902,59.286782 84.0153421,59.2854021 84.0130081,59.2841754 C83.7465523,59.6198855 79.2587419,64.7575756 77.2588557,67.0349455 C78.2626387,64.2036042 79.5594552,60.7081258 79.5587776,60.7077425 C78.789301,60.2924556 76.8317284,59.2596431 76.8312014,59.2614063 L76.7014745,59.1891892 C76.3785504,60.0303426 76.2641076,60.3468101 75.8387121,61.3296379 C74.8257436,63.6702553 71.4709159,66.3044944 68.9189189,63.483886 C68.9625878,66.2156413 73.3685567,66.526589 75.1571004,64.7498326 C75.1260804,64.849802 74.7382551,66.0366317 74.7163454,66.1068556 C74.4783497,66.8684321 72.3133498,73.4891036 71.9536834,74.5886134 L74.8011986,74.5886134 C76.9020504,68.8252714 79.6339935,66.526589 82.5949726,63.744849 C82.1770309,65.0157021 81.8623134,65.7950646 81.4822432,67.0784138 C81.1526934,68.1911098 80.835416,69.324505 80.7637388,70.4900989 C80.6958261,71.5958951 80.8301457,72.930379 81.6277812,73.7595729 C81.8212797,73.9607383 82.0473041,74.1290149 82.2932806,74.2575032 C82.5696748,74.4018608 82.8712162,74.4909439 83.1781034,74.5358688 C83.3554896,74.5618578 83.5335534,74.5817904 83.7127466,74.5896867 C83.8661901,74.5965098 84.0199349,74.5962798 84.1733784,74.5886134 C83.5496657,74.5511249 83.1841267,73.7669326 83.0769119,73.260416" id="Fill-9"></path>
            <path d="M114.857658,63.2323941 C115.187167,62.7180201 115.575267,62.2319945 116.057296,61.8467548 C116.504367,61.489416 117.222508,60.9858591 117.802265,61.3536421 C118.462802,61.772676 118.262559,62.6495364 118.165515,63.2934923 C118.008892,64.3322369 117.647313,65.3591199 117.188691,66.3052846 C117.184663,66.3136399 117.180332,66.3213238 117.176228,66.3294553 C116.27479,66.574818 114.826729,66.6850783 113.281472,66.5348319 C113.289299,66.5126754 113.297202,66.4905935 113.304954,66.468437 C113.699513,65.3423346 114.210267,64.2430141 114.857658,63.2323941 M123.242582,66.9253682 C122.881308,66.9063449 122.664497,66.0758864 122.532952,66.4080102 C122.070606,67.5749938 121.762375,68.8285147 120.925836,69.8010136 C120.212483,70.6302785 119.327687,71.3316772 118.327989,71.919011 C117.003266,72.6972488 115.216425,73.2820462 113.654069,72.8148946 C112.338085,72.4214489 111.988286,71.3172046 112.196205,70.085318 C112.309056,69.4165199 112.497444,68.774056 112.711899,68.1387537 C116.622689,68.6103067 119.237027,68.0192429 119.237027,68.0192429 C119.237027,68.0192429 119.456497,67.6027454 119.654992,67.0973981 C120.062015,66.2265805 120.408395,65.3083912 120.634476,64.3708056 C120.813897,63.6268843 120.964745,62.8414102 120.942631,62.0742879 C120.920137,61.2935137 120.675741,60.4988637 120.056392,59.9770296 C119.462652,59.4766805 118.666618,59.234078 117.894141,59.1962553 C114.901735,59.0498135 112.695636,61.2010084 111.44531,63.6547105 C110.695176,65.1266631 110.126287,66.6912702 109.781503,68.3026522 C109.356546,70.2884566 108.932273,73.3717166 111.463093,74.1865089 C114.375022,75.1240199 117.580591,74.40039 119.90714,72.4857549 C120.907978,71.6621597 121.745277,70.6566872 122.422837,69.5633347 C122.669057,69.1660843 122.670653,68.6632735 122.846578,68.2314828 C122.890047,68.1246541 123.260972,66.926338 123.242582,66.9253682" id="Fill-11"></path>
            <path d="M127.596734,59.3569729 C125.010032,60.1703396 123.858562,62.8781318 122.964446,65.2413592 C122.500485,66.4676135 122.115157,67.7270834 121.841973,69.0124297 C121.680785,69.7712441 121.585804,70.5819626 121.63433,71.3584062 C121.74566,73.1415329 122.781583,74.6457695 124.662283,74.59326 C126.575383,74.539767 127.838849,73.2243828 128.786818,71.6854931 C128.967609,71.3919245 129.552147,70.1996424 129.588911,69.945645 C129.590835,69.9333878 129.546229,69.7747245 129.539793,69.7328835 C129.502954,69.4918243 129.481576,69.2476629 129.464414,69.0044096 C129.414852,68.3030983 129.705641,66.8895806 129.72554,66.2001483 C129.269864,67.771043 128.392687,69.9541948 127.365567,71.226149 C126.953683,71.7362623 126.471968,72.3968674 125.82152,72.5918484 C125.0448,72.8247361 124.36454,72.0463253 124.233015,71.3198186 C124.100529,70.5881669 124.301367,69.8034005 124.47698,69.095431 C124.803868,67.7780796 125.286101,66.5027963 125.80421,65.2533138 C126.159431,64.3965928 126.727398,63.1753322 127.298547,62.4355847 C127.584528,62.0651434 127.942781,61.7220919 128.339057,61.4785358 C128.741324,61.2312724 129.24856,61.0811589 129.711411,61.2234035 C130.64392,61.5100869 130.675802,62.6775518 130.531184,63.4925074 C130.499894,63.6689512 130.458099,63.8441844 130.400547,64.013743 C130.572536,63.5068075 130.940923,62.6481193 131.111358,62.1357361 C131.261968,61.6827476 131.46754,61.2025208 131.270031,60.7291036 C131.098856,60.3190154 130.740085,59.9922312 130.387084,59.7469349 C129.489417,59.1231016 128.513412,59.0687006 127.596734,59.3569729" id="Fill-13"></path>
            <path d="M145.251945,59.8041474 C144.434228,60.1124256 143.686743,60.6307377 143.117387,61.2866374 C142.008015,62.5646486 141.007891,63.9482095 139.98098,65.293873 C139.034881,66.5335301 138.117369,67.7952561 137.168043,69.032402 C136.267339,70.2062333 135.36701,71.5326437 134.186131,72.4348767 C133.660145,72.8367569 132.929467,73.1156608 132.265194,73.0040992 C131.678806,72.9055507 131.271598,72.5523739 131.251639,71.937644 C131.227628,71.1976547 131.483493,70.3725102 131.686384,69.6669178 C132.447225,67.0214026 134.91951,60.6506758 134.877491,60.6280743 C134.110572,60.2159206 132.760116,59.5116218 132.160222,59.1891892 C132.160222,59.1891892 130.418765,64.8171871 130.051551,65.9874417 C129.655523,67.2496243 129.19294,68.5017618 129.004606,69.8188119 C128.82415,71.0806901 128.855664,72.661272 129.831402,73.5838996 C130.801587,74.5012763 132.225726,74.7328464 133.498522,74.522508 C134.906679,74.2897204 136.10294,73.4514869 137.081529,72.4303107 C138.268562,71.1916428 139.295473,69.7699562 140.348195,68.4147042 C141.402793,67.0570931 142.463394,65.7044285 143.527521,64.3545796 C144.473471,63.1546463 145.453035,61.9005302 146.754119,61.0758424 C147.307042,60.7418427 147.963812,60.5945906 148.603999,60.610267 C149.084064,60.6220624 149.566831,60.7258618 150,60.9391681 C149.776925,60.8292807 149.551224,60.4514479 149.339479,60.2879105 C149.085265,60.0916505 148.80644,59.9288741 148.511557,59.8039952 C147.460711,59.3588906 146.29874,59.4094966 145.251945,59.8041474" id="Fill-15"></path>
            <path d="M147.211429,73.8723484 C146.899059,73.8556478 146.496427,73.7528462 146.338568,73.7142492 C143.691479,73.0674529 142.51676,70.1162685 141.733536,67.9069625 C141.060666,66.008956 140.634671,64.0382833 140.214439,62.0784474 C140.17698,61.9033507 139.924965,60.6827212 139.802073,60 C139.802073,60 137.023992,60.980586 137.02703,60.9999587 C137.595464,64.3436447 138.456956,67.4711877 139.893502,70.4709895 C140.515517,71.7697779 141.34944,73.0923925 142.654839,73.8920922 C144.140604,74.8023872 146.12962,74.8804718 147.567568,73.8160859 C147.497633,73.8678207 147.365551,73.8805874 147.211429,73.8723484" id="Fill-17"></path>
            <path d="M25.1351351,50.7654595 C25.1351351,50.7654595 22.6385724,50.9939075 21.1091703,50.947692 C15.7126339,50.9245843 11.5604193,50.3486435 6.77929385,50.2812326 C4.71344343,50.2521488 2.02169884,50.1497575 0.61816947,52.0818842 C0.147410183,52.729937 -0.0997346713,53.5585491 0.0379032169,54.3732965 C0.0694279497,54.5601506 0.177200302,54.8696351 0.431132778,55.1351351 C0.365594518,54.6243742 0.788840451,54.1341711 1.22830126,53.8611013 C2.5773034,53.0226087 4.29773929,52.9904172 5.81771409,53.0237242 C7.66696396,53.0642823 9.50761618,53.205877 11.3543018,53.3065949 C14.7668165,53.4927319 17.8439471,53.7869971 21.2621181,53.7869971 C22.9225967,53.7869971 24.1737816,53.5816569 24.1737816,53.5816569 C24.6363958,52.3101728 24.7475619,51.8371014 25.1351351,50.7654595" id="Fill-19"></path>
            <path d="M70.8909222,62.6132679 C70.6874436,62.3159673 70.3344615,62.1192366 70.0063966,62.1192366 C69.4842433,62.1192366 68.9310359,62.6726368 68.9310359,63.4501338 C68.9310359,63.9405924 69.1360672,64.4533238 69.3915245,64.7053186 C69.3748144,64.7557935 69.3746666,64.7504724 69.3700824,64.7659037 C68.8675228,66.4590197 68.308696,68.1779812 67.6351168,69.8364337 C67.2025769,70.9012731 66.2695477,72.8259353 64.7755475,72.8259353 C63.5428458,72.8259353 63.1272378,71.5111536 63.2654287,70.4420573 C63.3716043,69.6204707 63.7425535,68.5319142 63.9959405,67.7481838 C64.3859658,66.5418017 64.8207239,65.3465179 65.375484,64.2087787 C65.7649917,63.409693 66.2809342,62.521592 66.8800574,61.859032 C67.9403347,60.6863252 69.8181494,60.2033922 70.9394259,61.467699 C70.953622,61.4837385 70.9665613,61.5004621 70.9801659,61.5168817 C70.9357289,61.329653 70.8760606,61.1469853 70.7970204,60.9716152 C70.7244868,60.8106882 70.6360564,60.6558425 70.5293632,60.5088266 C70.0060269,59.7874298 69.1767334,59.3637897 68.3224486,59.2340295 C67.6281666,59.1285946 66.8988378,59.2071957 66.2510631,59.4899772 C64.4800155,60.2629892 63.4300157,62.0255842 62.6807235,63.7608133 C62.4728086,64.2423019 62.2830825,64.7318483 62.0981625,65.2230671 C61.6344206,66.4550668 61.2492752,67.7203618 60.9762206,69.0118065 C60.7220202,70.2143118 60.7100422,71.6943534 61.3054684,72.8094398 C61.905331,73.9325078 62.8117424,74.4184814 64.0044435,74.5601762 C65.5087211,74.7388911 67.0121854,74.2195462 67.9980806,73.0508682 C69.7046538,71.0279166 70.5146495,68.3344232 71.1533298,65.7899223 C71.5642796,64.1528305 71.2657901,63.0977212 70.8909222,62.6132679" id="Fill-21"></path>
            <path d="M54.3227753,69.1687289 C54.3175997,68.8959122 54.312424,68.6230956 54.3073245,68.350279 C54.3035188,68.1526463 54.1214575,67.9053209 54.046106,67.7224063 C53.764946,68.6620152 53.595291,69.1565902 53.1806295,69.9367274 C52.64571,70.9433267 51.8493438,72.1903475 50.7948796,72.6293121 C50.4576247,72.7696655 50.0467688,72.888321 49.6614867,72.8660162 C49.399431,72.8508429 49.1492488,72.7704242 48.9422225,72.5874337 C48.6927254,72.3668134 48.5700319,72.0308757 48.5415657,71.6996417 C48.456548,70.7106435 48.8719706,69.534027 49.133113,68.5969216 C49.3707365,67.7441041 49.6318789,66.9022115 49.9391455,66.0709401 C50.5931051,64.3019565 51.9169318,60.8939488 52.0781383,60.4860136 C51.7556491,60.308789 50.1068216,59.5216721 49.4983013,59.2002249 C49.4983013,59.2002249 45.0428212,64.1861839 42.9154737,66.5598251 C43.1885657,65.8090483 43.4627995,65.0594095 43.737566,64.3128813 C44.6365321,61.8708083 45.474608,59.4052167 46.5780887,57.0444729 C47.1015151,55.9246805 47.7098071,54.5898819 48.5392063,53.661653 C49.6216798,52.4500619 50.7871923,52.5766834 51.0076905,52.8615628 C51.1427904,51.5107564 49.9655566,50.1863515 48.7283461,50.2744328 C48.1567404,50.3150973 46.6843419,50.1267962 44.3928956,54.6887362 C43.8998381,55.6703754 43.4073895,57.0367345 42.8392849,58.5079414 C42.575022,59.1923348 40.5839921,64.7453214 39.8919001,66.7363669 C39.6252777,67.5033033 39.35112,68.3069591 39.078028,69.1107667 C39.078028,69.1107667 37.5066831,73.7142058 37.2972973,74.3409406 L40.1758002,74.3409406 C40.2088331,74.2392792 40.2420182,74.1389834 40.2751271,74.0395222 C42.3233175,68.707687 44.9463865,66.4377556 47.7907909,63.8327968 C47.1248817,65.6588322 46.4841657,67.5225734 46.182227,69.4218202 C45.9629466,70.800849 45.8771676,72.6309053 46.9374163,73.7098056 C47.3354092,74.1144026 47.9473546,74.4296287 48.5060973,74.5303038 C50.336225,74.8599446 51.9679272,73.8709464 52.8499202,72.7280147 C53.4812743,71.9098683 53.7883887,71.0638788 54.2390515,70.1345877 C54.3038994,70.0008347 54.2659192,69.7499436 54.2972776,69.6047347 C54.3281793,69.4621054 54.3255154,69.3146205 54.3227753,69.1687289" id="Fill-23"></path>
            <path d="M22.7327064,63.4017934 C22.7211134,63.4656274 22.7075882,63.5291634 22.6929482,63.5924014 C22.3737684,64.60935 22.0904081,65.5107719 21.9660803,65.9022669 C21.8375166,66.3073183 21.7036766,66.7139339 21.5757075,67.1230075 C21.0831525,68.488771 20.3645334,70.0298731 19.5522784,71.0153889 C19.1758766,71.4721331 18.7445566,71.9781866 18.1615611,72.1638041 C17.5258025,72.3662553 16.8896723,72.0528209 16.5833489,71.4736228 C16.1607236,70.6745439 16.4437124,69.7347621 16.6506033,68.9175832 C16.9789981,67.6207186 17.4634528,66.3653424 17.98395,65.1352912 C18.3408071,64.291819 18.9113921,63.0896253 19.4851726,62.3613074 C19.7724716,61.9966271 20.1323756,61.6589105 20.5304772,61.4191421 C20.9345982,61.175724 21.4441712,61.027945 21.9091556,61.1679775 C22.8459613,61.4502025 22.8779908,62.5995116 22.7327064,63.4017934 M36.4805497,70.9385945 C36.4393053,70.1869627 36.2281784,69.4481424 35.9370894,68.7573652 C35.3779488,67.430632 34.6309417,66.1818849 34.2119579,64.797649 C34.2019998,64.764801 34.1923389,64.731804 34.1829753,64.6987325 C33.8085057,63.3804906 33.8675112,61.875216 34.4531077,60.6295973 L31.783516,59.1892739 C31.6678087,59.1722913 30.7382858,61.7129124 30.5563644,62.2533781 C29.9536014,64.0443786 29.3449675,65.7128506 28.6403195,67.4753232 C27.1913398,71.0407139 26.8240044,72.133712 25.3678905,72.718869 C24.8942856,72.9993809 23.3779029,72.9472411 23.1020483,72.0553534 C22.9465829,71.5527262 23.0578313,71.1146034 23.2076489,70.617786 C23.3960356,69.9930773 23.5903674,69.3700818 23.7905701,68.7490973 C24.1910497,67.507054 24.6151612,66.2726081 25.0625332,65.0468026 C25.5993795,63.5757912 26.1860163,62.1886504 26.7026492,60.656561 C25.7960894,60.1816424 25.0258219,59.761247 24.1192621,59.2863284 C23.9174245,59.8689528 23.7280718,60.3319538 23.5653235,60.8742072 C23.0379151,59.6682893 21.5877464,59.0396328 20.2865034,59.2202598 C18.9852605,59.4008868 17.8531569,60.2575429 17.060075,61.3071906 C16.2669187,62.3568383 15.7665607,63.594487 15.287308,64.8204416 C14.6273229,66.5085032 13.9840586,68.2309772 13.8150679,70.0361299 C13.6980972,71.2859942 13.8815792,72.6965234 14.8385984,73.5064027 C15.6762689,74.2152054 16.9147162,74.2692073 17.9589061,73.9346191 C19.2210597,73.5301636 20.3066426,72.6002883 20.9018999,71.4135876 C20.9631349,72.2318837 21.3715661,73.0183002 22.0051696,73.5379845 C23.5537305,74.8079599 26.1726398,74.5263307 27.5746529,73.2691669 C27.948305,72.9340572 28.3896575,72.4210766 28.6725719,72.006789 C29.6784899,70.5339155 30.3794965,68.845109 31.0945484,67.2164121 C31.370403,66.5881281 31.6108097,65.9967888 31.8422986,65.3563637 C31.8825027,65.5016102 31.930584,65.6506554 31.9826783,65.8084154 C32.5951022,67.6653354 34.7337184,69.6622133 33.9256993,71.7656054 C33.448453,73.0077977 31.6695179,73.4038364 30.7716529,72.362829 C30.712796,72.2946004 30.6610733,72.2196681 30.6147755,72.1405647 L30.1626474,73.2929277 C30.980476,74.4257755 32.4955211,74.8108648 33.8363735,74.4806712 C35.5153559,74.0671285 36.5758949,72.675593 36.4805497,70.9385945" id="Fill-25"></path>
            <path d="M106.129316,63.7466724 C105.713467,65.0180128 105.400326,65.7976741 105.02216,67.0815154 C104.976687,67.2358218 104.931588,67.3905883 104.887239,67.545815 L107.502642,68.5788701 C108.096936,66.0479235 108.906533,63.3997899 110.27027,60.7084014 C110.27027,60.7084014 108.156268,59.5831613 107.557329,59.2582129 C107.557329,59.2582129 107.553733,59.2689499 107.547441,59.2881232 C107.545118,59.2868194 107.542646,59.2855156 107.540324,59.2842885 C107.275128,59.6200506 102.80987,64.7597106 100.819925,67.0380305 C101.818681,64.2055268 103.109002,60.7087082 103.108403,60.7084014 C102.342705,60.2929553 100.394937,59.2597468 100.394488,59.261434 L100.265336,59.1891892 C99.8530834,60.150613 99.0521013,61.824515 98.1861687,63.1301372 C94.2959518,68.99562 89.9500323,67.7625495 85.9459459,65.6962859 C90.3732223,71.0952451 97.0793121,68.1291422 98.4629015,65.546351 C98.431962,65.6462821 98.3191413,66.0420948 98.2901495,66.1095847 C97.9972352,66.7908488 95.8079441,73.3636715 95.5413996,74.5945946 L98.3745777,74.5945946 C100.464907,68.8290428 103.183167,66.529479 106.129316,63.7466724" id="Fill-27"></path>
            <path d="M6.49409471,60.9262853 C5.34408217,60.8019864 4.23750916,60.5309114 3.24324324,60 C3.3021969,60.2962495 4.37698488,62.4630513 6.88595869,62.8305535 C9.2744521,63.1803736 11.7878909,63.3372644 14.254409,63.1853186 C14.254409,63.1853186 15.4032107,60.7478164 15.4054054,60.7434708 C14.9696478,60.7293101 13.3656391,60.8578797 12.8584409,60.8666458 C10.7475367,60.9034335 8.6003825,61.1545038 6.49409471,60.9262853" id="Fill-29"></path>
            <polygon id="Fill-31" points="46.2162162 9.73756352 54.0147032 21.8918919 57.2687409 20.8181239 60 0.810810811"></polygon>
            <polygon id="Fill-33" points="88.2623454 0 82.6840573 1.22463446 76.2162162 8.29469991 91.6216216 25.1351351"></polygon>
            <polygon id="Fill-35" points="67.082243 1.22730593 61.4207634 0 57.5675676 28.6025595 74.9999619 43.7837838 92.4324324 28.6025595 92.4306796 28.5894131"></polygon>
            <polygon id="Fill-37" points="96.7961076 21.8918919 104.594595 9.73756352 90.8108108 0.810810811 93.5421472 20.8182004"></polygon>
        </g>
    </g>
</svg>
