
<svg width="18px" height="19px" viewBox="0 0 18 19" version="1.1" xmlns="http://www.w3.org/2000/svg" xmlns:xlink="http://www.w3.org/1999/xlink">
    <!-- Generator: Sketch 46.2 (44496) - http://www.bohemiancoding.com/sketch -->
    <desc>Created with Sketch.</desc>
    <defs></defs>
    <g id="Page-1" stroke="none" stroke-width="1" fill="none" fill-rule="evenodd">
        <g id="Profile" transform="translate(-151.000000, -215.000000)">
            <g id="github" transform="translate(144.000000, 208.500000)">
                <rect id="Rectangle" x="0" y="0" width="32" height="32"></rect>
                <path d="M7.27272727,16.2214064 C7.27272727,20.1744264 9.77312212,23.5286704 13.2411007,24.7119396 C13.6777456,24.7943399 13.8368665,24.5180241 13.8368665,24.280711 C13.8368665,24.0681181 13.8293658,23.5055983 13.8250797,22.759051 C11.3975483,23.2995974 10.8853612,21.5593018 10.8853612,21.5593018 C10.4883626,20.5254519 9.9161702,20.2502347 9.9161702,20.2502347 C9.12378024,19.6948563 9.97617539,19.7063923 9.97617539,19.7063923 C10.852144,19.7695659 11.3128982,20.628727 11.3128982,20.628727 C12.0918941,21.9960237 13.3557534,21.6010513 13.8529393,21.3719783 C13.9322319,20.7935278 14.1577871,20.399654 14.4069158,20.1755251 C12.4690696,19.9497481 10.4315719,19.182326 10.4315719,15.7533724 C10.4315719,14.7761041 10.7717799,13.9773699 11.3300425,13.3516765 C11.2405705,13.1253502 10.9410803,12.2156502 11.4157642,10.9840395 C11.4157642,10.9840395 12.1486847,10.7428811 13.815436,11.9008809 C14.5119249,11.7025707 15.2582394,11.6031409 16.0002679,11.5998449 C16.7417606,11.6031409 17.4880751,11.7025707 18.1856355,11.9008809 C19.8513153,10.7428811 20.5831643,10.9840395 20.5831643,10.9840395 C21.0589197,12.2156502 20.7594295,13.1253502 20.6699575,13.3516765 C21.2292916,13.9773699 21.5668208,14.7761041 21.5668208,15.7533724 C21.5668208,19.1905661 19.5266443,19.9470014 17.582369,20.168933 C17.895789,20.4452489 18.1743845,20.9912886 18.1743845,21.8257296 C18.1743845,23.0221828 18.1642051,23.9873657 18.1642051,24.280711 C18.1642051,24.5202214 18.3211829,24.7981853 18.764257,24.7108409 C22.2290209,23.5253744 24.7272727,20.1738771 24.7272727,16.2214064 C24.7272727,11.2790328 20.8194347,7.27272727 15.9991964,7.27272727 C11.1805653,7.27272727 7.27272727,11.2790328 7.27272727,16.2214064 Z" id="Shape" fill="#000000"></path>
            </g>
        </g>
    </g>
</svg>
