
<svg width="16px" height="19px" viewBox="0 0 16 19" version="1.1" xmlns="http://www.w3.org/2000/svg" xmlns:xlink="http://www.w3.org/1999/xlink">
    <!-- Generator: Sketch 46.2 (44496) - http://www.bohemiancoding.com/sketch -->
    <desc>Created with Sketch.</desc>
    <defs></defs>
    <g id="Page-1" stroke="none" stroke-width="1" fill="none" fill-rule="evenodd">
        <g id="Profile" transform="translate(-204.000000, -215.000000)">
            <g id="stackoverflow" transform="translate(196.000000, 208.500000)">
                <rect id="Rectangle" x="0" y="0" width="32" height="32"></rect>
                <path d="M18.5036883,19.292254 L18.3692186,20.8750486 L11.0757305,20.1892702 L11.2206123,18.6063462 L18.5036883,19.292254 Z M18.3278238,21.3288667 L18.3278238,22.9222814 L11.0136382,22.9325131 L11.0136382,21.3394869 L18.3278238,21.3288667 Z M19.9106043,15.3880448 L19.1139445,16.759731 L12.813805,12.9609465 L13.6103379,11.5892603 L19.9106043,15.3880448 Z M18.989887,17.202929 L18.586478,18.7436314 L11.5205343,16.8124433 L11.9240703,15.2718705 L18.989887,17.202929 Z M19.5793188,24.1989041 L19.5793188,17.677858 L20.8210364,17.677858 L20.8210364,25.0745504 L20.8106242,25.4439253 L20.8106242,25.4545455 L9.09982612,25.4545455 L8.73768492,25.4439253 L8.72727273,25.4439253 L8.72727273,17.677858 L9.97902165,17.677858 L9.97902165,24.1989041 L19.5793188,24.1989041 Z M22.0211053,6.54545455 L23.2727273,13.9001843 L21.7314686,14.1744956 L20.4794657,6.81976588 L22.0211053,6.54545455 Z M16.0414583,9.00402491 L17.3346021,8.09664757 L21.452244,14.2695592 L20.1692585,15.1664458 L16.0414583,9.00402491 Z" id="Shape" fill="#000000"></path>
            </g>
        </g>
    </g>
</svg>
